<svg width="23" height="28" viewBox="0 0 23 28" fill="none" xmlns="http://www.w3.org/2000/svg">
<path d="M18.9098 14.6848C18.8782 11.263 21.7835 9.5982 21.9164 9.52069C20.271 7.18175 17.7207 6.86217 16.8245 6.83669C14.6826 6.61692 12.6049 8.08632 11.5138 8.08632C10.4009 8.08632 8.72068 6.85793 6.90978 6.89402C4.57947 6.92906 2.39942 8.24452 1.20378 10.2872C-1.26374 14.4523 0.576553 20.5731 2.94062 23.9398C4.1232 25.5886 5.50506 27.4296 7.31378 27.3648C9.08329 27.2937 9.74427 26.2649 11.8797 26.2649C13.9955 26.2649 14.6162 27.3648 16.4608 27.3234C18.3599 27.2937 19.5555 25.6672 20.6967 24.0035C22.0634 22.1136 22.6122 20.2524 22.634 20.1569C22.5893 20.142 18.9457 18.7862 18.9098 14.6848Z" fill="white"/>
<path d="M15.4252 4.62197C16.377 3.46152 17.0281 1.88276 16.8474 0.28064C15.4699 0.340095 13.7472 1.20964 12.7552 2.3446C11.8775 3.34473 11.0935 4.98401 11.296 6.52561C12.8434 6.63815 14.4321 5.76437 15.4252 4.62197Z" fill="white"/>
</svg>
