<svg width="27" height="28" viewBox="0 0 27 28" fill="none" xmlns="http://www.w3.org/2000/svg">
<path d="M1.44364 1.44395C1.13506 1.75071 0.956482 2.22831 0.956482 2.84682V24.9086C0.956482 25.5271 1.13506 26.0047 1.44364 26.3114L1.5198 26.3788L14.5379 14.0211V13.7293L1.5198 1.37163L1.44364 1.44395Z" fill="white"/>
<path d="M20.4487 18.1423L16.1141 14.021V13.7292L20.454 9.60793L20.5511 9.66155L25.6906 12.4386C27.1574 13.2267 27.1574 14.5236 25.6906 15.3167L20.5511 18.0887L20.4487 18.1423Z" fill="white"/>
<path d="M19.7625 18.8562L15.3255 14.6426L2.2312 27.0789C2.71836 27.5652 3.51279 27.6238 4.41621 27.1375L19.7625 18.8562Z" fill="white"/>
<path d="M19.7625 8.89433L4.41621 0.613064C3.51279 0.131725 2.71836 0.190332 2.2312 0.676658L15.3255 13.1079L19.7625 8.89433Z" fill="white"/>
</svg>
