<svg xmlns="http://www.w3.org/2000/svg" width="1254" height="1254" viewBox="0 0 1254 1254">
  <g id="Group_1803" data-name="Group 1803" transform="translate(-5663 -7526)">
    <path id="Path_2632" data-name="Path 2632" d="M780.613,133.494,679.535,55.99,411.786,405.174,263.078,291.147,185.573,392.224l199.233,152.54h0L435.9,583.054Z" transform="translate(5806.984 7815.297)" fill="#3ad29f"/>
    <path id="Subtraction_5" data-name="Subtraction 5" d="M627,1254a637.033,637.033,0,0,1-64.107-3.237,628.484,628.484,0,0,1-62.255-9.5c-20.2-4.134-40.417-9.332-60.088-15.45-19.452-6.05-38.834-13.144-57.606-21.084-18.6-7.867-37.04-16.75-54.809-26.4-17.642-9.584-35.035-20.15-51.7-31.406-16.58-11.2-32.82-23.345-48.269-36.094-15.411-12.718-30.391-26.333-44.526-40.468s-27.749-29.114-40.468-44.526c-12.75-15.449-24.894-31.689-36.095-48.268-11.256-16.661-21.823-34.054-31.406-51.7-9.653-17.769-18.536-36.209-26.4-54.809-7.94-18.773-15.034-38.155-21.084-57.606-6.118-19.671-11.317-39.888-15.45-60.088a628.551,628.551,0,0,1-9.5-62.255,636.378,636.378,0,0,1,0-128.214,628.53,628.53,0,0,1,9.5-62.255c4.134-20.2,9.332-40.417,15.45-60.088,6.05-19.452,13.144-38.833,21.084-57.606,7.867-18.6,16.75-37.04,26.4-54.809,9.584-17.642,20.15-35.035,31.406-51.7,11.2-16.58,23.345-32.82,36.095-48.269,12.719-15.412,26.334-30.392,40.468-44.526s29.114-27.749,44.526-40.468c15.448-12.749,31.688-24.893,48.269-36.095,16.661-11.256,34.054-21.823,51.7-31.406,17.768-9.652,36.209-18.536,54.809-26.4,18.773-7.94,38.154-15.034,57.606-21.084,19.671-6.118,39.888-11.317,60.088-15.45a628.53,628.53,0,0,1,62.255-9.5,636.378,636.378,0,0,1,128.214,0,628.551,628.551,0,0,1,62.255,9.5c20.2,4.134,40.417,9.332,60.088,15.45,19.451,6.05,38.833,13.144,57.606,21.084,18.6,7.867,37.039,16.75,54.809,26.4,17.642,9.584,35.035,20.15,51.7,31.406,16.58,11.2,32.82,23.345,48.268,36.095,15.411,12.719,30.392,26.334,44.526,40.468s27.75,29.115,40.468,44.526c12.749,15.449,24.893,31.689,36.094,48.269,11.256,16.661,21.823,34.054,31.406,51.7,9.652,17.768,18.536,36.209,26.4,54.809,7.94,18.772,15.034,38.154,21.084,57.606,6.118,19.672,11.317,39.888,15.45,60.088a628.484,628.484,0,0,1,9.5,62.255,636.364,636.364,0,0,1,0,128.214,628.505,628.505,0,0,1-9.5,62.255c-4.134,20.2-9.332,40.417-15.45,60.088-6.05,19.452-13.144,38.833-21.084,57.606-7.867,18.6-16.75,37.039-26.4,54.809-9.584,17.642-20.15,35.035-31.406,51.7-11.2,16.579-23.345,32.819-36.094,48.268-12.718,15.411-26.333,30.391-40.468,44.526s-29.115,27.75-44.526,40.468c-15.449,12.75-31.689,24.894-48.268,36.094-16.661,11.256-34.054,21.823-51.7,31.406-17.769,9.653-36.209,18.536-54.809,26.4-18.773,7.94-38.154,15.034-57.606,21.084-19.671,6.118-39.888,11.317-60.088,15.45a628.505,628.505,0,0,1-62.255,9.5A637.033,637.033,0,0,1,627,1254Zm0-1124c-274.047,0-497,222.954-497,497s222.954,497,497,497,497-222.953,497-497S901.047,130,627,130Z" transform="translate(5663 7526)" fill="#3ad29f"/>
  </g>
</svg>
